<?xml version="1.0" ?><svg style="enable-background:new 0 0 128 128;" version="1.1" viewBox="0 0 128 128" xml:space="preserve" xmlns="http://www.w3.org/2000/svg" xmlns:xlink="http://www.w3.org/1999/xlink"><g id="Layer_1"/><g id="refrigerator"/><g id="washer"/><g id="tv"/><g id="microwawe"/><g id="vacuum_cleaner"/><g id="Gift"/><g id="umbrella"/><g id="rocket"/><g id="basket"/><g id="shopping"/><g id="email"/><g id="message"/><g id="delivery"/><g id="store"/><g id="label"/><g id="phone"/><g id="imac"/><g id="laptop"/><g id="heart_like"/><g id="game"/><g id="wallet"><g><g><path d="M116,112H12c-3.309,0-6-2.691-6-6V32c0-3.309,2.691-6,6-6h104c3.309,0,6,2.691,6,6v74     C122,109.309,119.309,112,116,112z M12,30c-1.103,0-2,0.897-2,2v74c0,1.103,0.897,2,2,2h104c1.103,0,2-0.897,2-2V32     c0-1.103-0.897-2-2-2H12z" style="fill:#505070;"/></g><g><path d="M36,30.001c-0.812,0-1.574-0.498-1.874-1.303c-0.386-1.035,0.141-2.187,1.176-2.572L84.653,7.74     c1.879-0.703,4,0.11,4.936,1.884l9.181,17.444c0.515,0.978,0.14,2.188-0.838,2.701c-0.977,0.516-2.187,0.139-2.701-0.838     L86.05,11.488L36.698,29.874C36.468,29.96,36.232,30.001,36,30.001z" style="fill:#505070;"/></g><g><path d="M122,82H80c-3.309,0-6-2.691-6-6V62c0-3.309,2.691-6,6-6h42V82z M80,60c-1.103,0-2,0.897-2,2v14     c0,1.103,0.897,2,2,2h38V60H80z" style="fill:#505070;"/></g><g><path d="M87,75c-3.309,0-6-2.691-6-6s2.691-6,6-6s6,2.691,6,6S90.309,75,87,75z M87,67     c-1.103,0-2,0.897-2,2s0.897,2,2,2s2-0.897,2-2S88.103,67,87,67z" style="fill:#505070;"/></g></g></g><g id="camera"/><g id="battery"/><g id="shoes"/><g id="t-shirt"/><g id="pencil"/><g id="people"/><g id="statistics"/><g id="blog"/><g id="rock"/><g id="like"/><g id="dislike"/><g id="speaker"/><g id="pc"/><g id="glasses"/><g id="headphones"/><g id="player"/><g id="book"/><g id="transfer"/><g id="mouse"/><g id="package"/><g id="exellent"/><g id="card"/><g id="induction"/><g id="revers_camera"/><g id="flesh_drive"/><g id="time"/><g id="sale"/><g id="tablet"/><g id="search"/></svg>